<?xml version="1.0" encoding="UTF-8" standalone="no"?><!DOCTYPE svg PUBLIC "-//W3C//DTD SVG 1.1//EN" "http://www.w3.org/Graphics/SVG/1.1/DTD/svg11.dtd"><svg width="128px" height="128px" version="1.1" xmlns="http://www.w3.org/2000/svg" xmlns:xlink="http://www.w3.org/1999/xlink" xml:space="preserve" style="fill-rule:evenodd;clip-rule:evenodd;stroke-linejoin:round;stroke-miterlimit:1.41421;"><rect x="0" y="0" width="128" height="128" style="fill:#ff0800;"/><path d="M30.908,67.973l-1.406,0l0,-8.961c-0.339,0.323 -0.783,0.646 -1.332,0.968c-0.55,0.323 -1.043,0.566 -1.481,0.727l0,-1.359c0.787,-0.37 1.474,-0.818 2.063,-1.344c0.588,-0.526 1.005,-1.037 1.25,-1.531l0.906,0l0,11.5Z" style="fill-rule:nonzero;"/><path d="M41.9,66.621l0,1.352l-7.57,0c-0.011,-0.339 0.044,-0.664 0.164,-0.977c0.193,-0.516 0.501,-1.023 0.926,-1.523c0.424,-0.5 1.037,-1.078 1.839,-1.735c1.245,-1.021 2.086,-1.829 2.524,-2.425c0.437,-0.597 0.656,-1.161 0.656,-1.692c0,-0.557 -0.199,-1.027 -0.598,-1.41c-0.398,-0.383 -0.917,-0.574 -1.558,-0.574c-0.677,0 -1.219,0.203 -1.625,0.609c-0.406,0.406 -0.612,0.969 -0.617,1.688l-1.446,-0.149c0.099,-1.078 0.472,-1.9 1.118,-2.465c0.645,-0.565 1.513,-0.847 2.601,-0.847c1.099,0 1.969,0.304 2.61,0.914c0.64,0.609 0.96,1.364 0.96,2.265c0,0.459 -0.093,0.909 -0.281,1.352c-0.187,0.443 -0.498,0.909 -0.933,1.398c-0.435,0.49 -1.158,1.162 -2.168,2.016c-0.844,0.708 -1.386,1.189 -1.625,1.441c-0.24,0.253 -0.438,0.507 -0.594,0.762l5.617,0Z" style="fill-rule:nonzero;"/><path d="M45.572,61.762c-0.583,-0.214 -1.016,-0.519 -1.297,-0.914c-0.281,-0.396 -0.422,-0.87 -0.422,-1.422c0,-0.834 0.3,-1.534 0.899,-2.102c0.599,-0.567 1.395,-0.851 2.39,-0.851c1,0 1.805,0.29 2.414,0.871c0.61,0.58 0.914,1.288 0.914,2.121c0,0.531 -0.139,0.993 -0.418,1.387c-0.278,0.393 -0.701,0.696 -1.269,0.91c0.703,0.229 1.238,0.599 1.605,1.109c0.368,0.511 0.551,1.12 0.551,1.828c0,0.979 -0.346,1.802 -1.039,2.469c-0.693,0.667 -1.604,1 -2.734,1c-1.131,0 -2.042,-0.335 -2.735,-1.004c-0.692,-0.669 -1.039,-1.504 -1.039,-2.504c0,-0.745 0.189,-1.368 0.567,-1.871c0.377,-0.503 0.915,-0.845 1.613,-1.027Zm-0.281,-2.383c0,0.542 0.174,0.984 0.523,1.328c0.349,0.344 0.802,0.516 1.36,0.516c0.541,0 0.985,-0.171 1.332,-0.512c0.346,-0.341 0.519,-0.759 0.519,-1.254c0,-0.516 -0.178,-0.949 -0.535,-1.301c-0.357,-0.351 -0.801,-0.527 -1.332,-0.527c-0.537,0 -0.982,0.172 -1.336,0.516c-0.354,0.343 -0.531,0.755 -0.531,1.234Zm-0.453,5.289c0,0.401 0.095,0.789 0.285,1.164c0.19,0.375 0.472,0.665 0.847,0.871c0.375,0.206 0.779,0.309 1.211,0.309c0.672,0 1.227,-0.216 1.664,-0.649c0.438,-0.432 0.657,-0.981 0.657,-1.648c0,-0.677 -0.226,-1.237 -0.676,-1.68c-0.451,-0.443 -1.014,-0.664 -1.692,-0.664c-0.661,0 -1.209,0.219 -1.644,0.656c-0.435,0.438 -0.652,0.985 -0.652,1.641Z" style="fill-rule:nonzero;"/><path d="M51.759,67.973l3.032,-4.313l-2.805,-3.984l1.758,0l1.273,1.945c0.24,0.37 0.433,0.68 0.578,0.93c0.23,-0.344 0.44,-0.649 0.633,-0.914l1.399,-1.961l1.679,0l-2.867,3.906l3.086,4.391l-1.726,0l-1.704,-2.578l-0.453,-0.696l-2.179,3.274l-1.704,0Z" style="fill-rule:nonzero;"/><path d="M65.603,67.973l-1.406,0l0,-8.961c-0.339,0.323 -0.783,0.646 -1.332,0.968c-0.55,0.323 -1.043,0.566 -1.481,0.727l0,-1.359c0.787,-0.37 1.474,-0.818 2.063,-1.344c0.588,-0.526 1.005,-1.037 1.25,-1.531l0.906,0l0,11.5Z" style="fill-rule:nonzero;"/><path d="M76.595,66.621l0,1.352l-7.57,0c-0.01,-0.339 0.044,-0.664 0.164,-0.977c0.193,-0.516 0.501,-1.023 0.926,-1.523c0.424,-0.5 1.038,-1.078 1.84,-1.735c1.245,-1.021 2.086,-1.829 2.523,-2.425c0.438,-0.597 0.656,-1.161 0.656,-1.692c0,-0.557 -0.199,-1.027 -0.597,-1.41c-0.399,-0.383 -0.918,-0.574 -1.559,-0.574c-0.677,0 -1.219,0.203 -1.625,0.609c-0.406,0.406 -0.612,0.969 -0.617,1.688l-1.445,-0.149c0.099,-1.078 0.471,-1.9 1.117,-2.465c0.646,-0.565 1.513,-0.847 2.601,-0.847c1.099,0 1.969,0.304 2.61,0.914c0.64,0.609 0.961,1.364 0.961,2.265c0,0.459 -0.094,0.909 -0.281,1.352c-0.188,0.443 -0.499,0.909 -0.934,1.398c-0.435,0.49 -1.158,1.162 -2.168,2.016c-0.844,0.708 -1.385,1.189 -1.625,1.441c-0.24,0.253 -0.438,0.507 -0.594,0.762l5.617,0Z" style="fill-rule:nonzero;"/><path d="M80.267,61.762c-0.583,-0.214 -1.015,-0.519 -1.297,-0.914c-0.281,-0.396 -0.421,-0.87 -0.421,-1.422c0,-0.834 0.299,-1.534 0.898,-2.102c0.599,-0.567 1.396,-0.851 2.391,-0.851c1,0 1.804,0.29 2.414,0.871c0.609,0.58 0.914,1.288 0.914,2.121c0,0.531 -0.14,0.993 -0.418,1.387c-0.279,0.393 -0.702,0.696 -1.27,0.91c0.703,0.229 1.238,0.599 1.606,1.109c0.367,0.511 0.55,1.12 0.55,1.828c0,0.979 -0.346,1.802 -1.039,2.469c-0.692,0.667 -1.604,1 -2.734,1c-1.13,0 -2.042,-0.335 -2.734,-1.004c-0.693,-0.669 -1.039,-1.504 -1.039,-2.504c0,-0.745 0.188,-1.368 0.566,-1.871c0.378,-0.503 0.915,-0.845 1.613,-1.027Zm-0.281,-2.383c0,0.542 0.174,0.984 0.523,1.328c0.349,0.344 0.803,0.516 1.36,0.516c0.541,0 0.986,-0.171 1.332,-0.512c0.346,-0.341 0.519,-0.759 0.519,-1.254c0,-0.516 -0.178,-0.949 -0.535,-1.301c-0.357,-0.351 -0.801,-0.527 -1.332,-0.527c-0.536,0 -0.982,0.172 -1.336,0.516c-0.354,0.343 -0.531,0.755 -0.531,1.234Zm-0.453,5.289c0,0.401 0.095,0.789 0.285,1.164c0.19,0.375 0.473,0.665 0.848,0.871c0.375,0.206 0.778,0.309 1.211,0.309c0.672,0 1.226,-0.216 1.664,-0.649c0.437,-0.432 0.656,-0.981 0.656,-1.648c0,-0.677 -0.225,-1.237 -0.676,-1.68c-0.45,-0.443 -1.014,-0.664 -1.691,-0.664c-0.662,0 -1.21,0.219 -1.645,0.656c-0.435,0.438 -0.652,0.985 -0.652,1.641Z" style="fill-rule:nonzero;"/><path d="M87.392,71.152l0,-11.476l1.282,0l0,1.078c0.302,-0.422 0.643,-0.738 1.023,-0.949c0.38,-0.211 0.841,-0.317 1.383,-0.317c0.708,0 1.333,0.183 1.875,0.547c0.541,0.365 0.95,0.879 1.226,1.543c0.276,0.664 0.414,1.392 0.414,2.184c0,0.849 -0.152,1.613 -0.457,2.293c-0.304,0.679 -0.747,1.2 -1.328,1.562c-0.58,0.362 -1.191,0.543 -1.832,0.543c-0.469,0 -0.889,-0.099 -1.262,-0.297c-0.372,-0.198 -0.678,-0.448 -0.917,-0.75l0,4.039l-1.407,0Zm1.274,-7.281c0,1.068 0.216,1.857 0.648,2.367c0.432,0.511 0.956,0.766 1.57,0.766c0.625,0 1.161,-0.264 1.606,-0.793c0.445,-0.529 0.668,-1.348 0.668,-2.457c0,-1.057 -0.218,-1.849 -0.652,-2.375c-0.435,-0.526 -0.955,-0.789 -1.559,-0.789c-0.599,0 -1.129,0.28 -1.59,0.84c-0.461,0.56 -0.691,1.373 -0.691,2.441Z" style="fill-rule:nonzero;"/><path d="M95.353,67.973l3.031,-4.313l-2.804,-3.984l1.758,0l1.273,1.945c0.24,0.37 0.432,0.68 0.578,0.93c0.229,-0.344 0.44,-0.649 0.633,-0.914l1.398,-1.961l1.68,0l-2.867,3.906l3.086,4.391l-1.727,0l-1.703,-2.578l-0.453,-0.696l-2.18,3.274l-1.703,0Z" style="fill-rule:nonzero;"/></svg>