<?xml version="1.0" encoding="UTF-8" standalone="no"?><!DOCTYPE svg PUBLIC "-//W3C//DTD SVG 1.1//EN" "http://www.w3.org/Graphics/SVG/1.1/DTD/svg11.dtd"><svg width="256px" height="256px" version="1.1" xmlns="http://www.w3.org/2000/svg" xmlns:xlink="http://www.w3.org/1999/xlink" xml:space="preserve" style="fill-rule:evenodd;clip-rule:evenodd;stroke-linejoin:round;stroke-miterlimit:1.41421;"><rect id="Artboard1" x="0" y="0" width="256" height="256" style="fill:none;"/><g><rect x="0" y="0" width="256" height="256" style="fill:#ff0800;"/><g><path d="M96.91,130.684l0,1.352l-7.571,0c-0.01,-0.339 0.045,-0.665 0.165,-0.977c0.192,-0.516 0.501,-1.023 0.925,-1.523c0.425,-0.5 1.038,-1.079 1.84,-1.735c1.245,-1.021 2.086,-1.829 2.524,-2.426c0.437,-0.596 0.656,-1.16 0.656,-1.691c0,-0.557 -0.199,-1.027 -0.598,-1.41c-0.398,-0.383 -0.918,-0.574 -1.558,-0.574c-0.677,0 -1.219,0.203 -1.625,0.609c-0.407,0.406 -0.612,0.969 -0.618,1.687l-1.445,-0.148c0.099,-1.078 0.471,-1.9 1.117,-2.465c0.646,-0.565 1.513,-0.847 2.602,-0.847c1.099,0 1.969,0.304 2.609,0.914c0.641,0.609 0.961,1.364 0.961,2.265c0,0.459 -0.094,0.909 -0.281,1.352c-0.188,0.443 -0.499,0.909 -0.934,1.398c-0.435,0.49 -1.157,1.162 -2.168,2.016c-0.843,0.708 -1.385,1.189 -1.625,1.441c-0.239,0.253 -0.437,0.507 -0.593,0.762l5.617,0Z" style="fill-rule:nonzero;"/><path d="M98.418,129.036l1.476,-0.125c0.11,0.718 0.363,1.259 0.762,1.621c0.398,0.362 0.879,0.543 1.441,0.543c0.677,0 1.25,-0.256 1.719,-0.766c0.469,-0.51 0.703,-1.188 0.703,-2.031c0,-0.802 -0.225,-1.435 -0.676,-1.899c-0.45,-0.463 -1.04,-0.695 -1.769,-0.695c-0.453,0 -0.862,0.103 -1.227,0.309c-0.364,0.205 -0.651,0.472 -0.859,0.8l-1.32,-0.172l1.109,-5.882l5.695,0l0,1.343l-4.57,0l-0.617,3.079c0.687,-0.48 1.409,-0.719 2.164,-0.719c1,0 1.844,0.346 2.531,1.039c0.688,0.693 1.031,1.583 1.031,2.672c0,1.036 -0.302,1.932 -0.906,2.687c-0.734,0.927 -1.737,1.391 -3.008,1.391c-1.041,0 -1.892,-0.292 -2.55,-0.875c-0.659,-0.583 -1.036,-1.357 -1.129,-2.32Z" style="fill-rule:nonzero;"/><path d="M114.613,123.387l-1.399,0.109c-0.125,-0.552 -0.302,-0.953 -0.531,-1.203c-0.38,-0.401 -0.849,-0.601 -1.406,-0.601c-0.448,0 -0.841,0.125 -1.18,0.375c-0.442,0.323 -0.791,0.794 -1.047,1.414c-0.255,0.62 -0.388,1.502 -0.398,2.648c0.339,-0.515 0.753,-0.898 1.242,-1.148c0.49,-0.25 1.003,-0.375 1.539,-0.375c0.938,0 1.736,0.345 2.395,1.035c0.659,0.69 0.988,1.582 0.988,2.676c0,0.719 -0.155,1.387 -0.465,2.004c-0.31,0.617 -0.735,1.09 -1.277,1.418c-0.542,0.328 -1.156,0.492 -1.844,0.492c-1.172,0 -2.127,-0.431 -2.867,-1.293c-0.74,-0.862 -1.109,-2.283 -1.109,-4.262c0,-2.213 0.408,-3.823 1.226,-4.828c0.714,-0.875 1.675,-1.312 2.883,-1.312c0.901,0 1.639,0.252 2.215,0.757c0.575,0.506 0.92,1.203 1.035,2.094Zm-5.742,4.938c0,0.484 0.103,0.948 0.308,1.39c0.206,0.443 0.494,0.78 0.864,1.012c0.369,0.232 0.757,0.348 1.164,0.348c0.593,0 1.104,-0.24 1.531,-0.719c0.427,-0.479 0.641,-1.13 0.641,-1.953c0,-0.792 -0.211,-1.416 -0.633,-1.871c-0.422,-0.456 -0.953,-0.684 -1.594,-0.684c-0.635,0 -1.174,0.228 -1.617,0.684c-0.443,0.455 -0.664,1.053 -0.664,1.793Z" style="fill-rule:nonzero;"/><path d="M115.668,132.036l3.031,-4.313l-2.805,-3.984l1.758,0l1.273,1.945c0.24,0.37 0.433,0.68 0.579,0.93c0.229,-0.344 0.44,-0.649 0.632,-0.914l1.399,-1.961l1.679,0l-2.867,3.906l3.086,4.391l-1.726,0l-1.703,-2.579l-0.454,-0.695l-2.179,3.274l-1.703,0Z" style="fill-rule:nonzero;"/><path d="M131.605,130.684l0,1.352l-7.57,0c-0.011,-0.339 0.044,-0.665 0.164,-0.977c0.193,-0.516 0.501,-1.023 0.926,-1.523c0.424,-0.5 1.037,-1.079 1.839,-1.735c1.245,-1.021 2.086,-1.829 2.524,-2.426c0.437,-0.596 0.656,-1.16 0.656,-1.691c0,-0.557 -0.199,-1.027 -0.597,-1.41c-0.399,-0.383 -0.918,-0.574 -1.559,-0.574c-0.677,0 -1.219,0.203 -1.625,0.609c-0.406,0.406 -0.612,0.969 -0.617,1.687l-1.446,-0.148c0.099,-1.078 0.472,-1.9 1.118,-2.465c0.645,-0.565 1.513,-0.847 2.601,-0.847c1.099,0 1.969,0.304 2.61,0.914c0.64,0.609 0.96,1.364 0.96,2.265c0,0.459 -0.093,0.909 -0.281,1.352c-0.187,0.443 -0.498,0.909 -0.933,1.398c-0.435,0.49 -1.158,1.162 -2.168,2.016c-0.844,0.708 -1.386,1.189 -1.625,1.441c-0.24,0.253 -0.438,0.507 -0.594,0.762l5.617,0Z" style="fill-rule:nonzero;"/><path d="M133.113,129.036l1.476,-0.125c0.11,0.718 0.364,1.259 0.762,1.621c0.399,0.362 0.879,0.543 1.442,0.543c0.677,0 1.25,-0.256 1.718,-0.766c0.469,-0.51 0.703,-1.188 0.703,-2.031c0,-0.802 -0.225,-1.435 -0.675,-1.899c-0.451,-0.463 -1.041,-0.695 -1.77,-0.695c-0.453,0 -0.862,0.103 -1.226,0.309c-0.365,0.205 -0.651,0.472 -0.86,0.8l-1.32,-0.172l1.109,-5.882l5.696,0l0,1.343l-4.571,0l-0.617,3.079c0.688,-0.48 1.409,-0.719 2.164,-0.719c1,0 1.844,0.346 2.531,1.039c0.688,0.693 1.032,1.583 1.032,2.672c0,1.036 -0.302,1.932 -0.907,2.687c-0.734,0.927 -1.737,1.391 -3.007,1.391c-1.042,0 -1.892,-0.292 -2.551,-0.875c-0.659,-0.583 -1.035,-1.357 -1.129,-2.32Z" style="fill-rule:nonzero;"/><path d="M149.308,123.387l-1.398,0.109c-0.125,-0.552 -0.302,-0.953 -0.531,-1.203c-0.381,-0.401 -0.849,-0.601 -1.407,-0.601c-0.448,0 -0.841,0.125 -1.179,0.375c-0.443,0.323 -0.792,0.794 -1.047,1.414c-0.255,0.62 -0.388,1.502 -0.399,2.648c0.339,-0.515 0.753,-0.898 1.242,-1.148c0.49,-0.25 1.003,-0.375 1.54,-0.375c0.937,0 1.735,0.345 2.394,1.035c0.659,0.69 0.988,1.582 0.988,2.676c0,0.719 -0.155,1.387 -0.464,2.004c-0.31,0.617 -0.736,1.09 -1.278,1.418c-0.541,0.328 -1.156,0.492 -1.844,0.492c-1.171,0 -2.127,-0.431 -2.867,-1.293c-0.739,-0.862 -1.109,-2.283 -1.109,-4.262c0,-2.213 0.409,-3.823 1.226,-4.828c0.714,-0.875 1.675,-1.312 2.883,-1.312c0.901,0 1.64,0.252 2.215,0.757c0.576,0.506 0.921,1.203 1.035,2.094Zm-5.742,4.938c0,0.484 0.103,0.948 0.309,1.39c0.205,0.443 0.493,0.78 0.863,1.012c0.37,0.232 0.758,0.348 1.164,0.348c0.594,0 1.104,-0.24 1.531,-0.719c0.427,-0.479 0.641,-1.13 0.641,-1.953c0,-0.792 -0.211,-1.416 -0.633,-1.871c-0.422,-0.456 -0.953,-0.684 -1.594,-0.684c-0.635,0 -1.174,0.228 -1.617,0.684c-0.443,0.455 -0.664,1.053 -0.664,1.793Z" style="fill-rule:nonzero;"/><path d="M151.3,135.215l0,-11.476l1.282,0l0,1.078c0.302,-0.422 0.643,-0.738 1.023,-0.949c0.38,-0.211 0.841,-0.317 1.383,-0.317c0.708,0 1.333,0.182 1.875,0.547c0.542,0.365 0.95,0.879 1.226,1.543c0.277,0.664 0.415,1.392 0.415,2.184c0,0.849 -0.153,1.613 -0.457,2.293c-0.305,0.679 -0.748,1.2 -1.329,1.562c-0.58,0.362 -1.191,0.543 -1.832,0.543c-0.468,0 -0.889,-0.099 -1.261,-0.297c-0.373,-0.198 -0.679,-0.448 -0.918,-0.75l0,4.039l-1.407,0Zm1.274,-7.281c0,1.068 0.216,1.857 0.648,2.367c0.433,0.511 0.956,0.766 1.571,0.766c0.625,0 1.16,-0.265 1.605,-0.793c0.445,-0.529 0.668,-1.348 0.668,-2.457c0,-1.057 -0.217,-1.849 -0.652,-2.375c-0.435,-0.526 -0.955,-0.789 -1.559,-0.789c-0.599,0 -1.129,0.28 -1.59,0.84c-0.461,0.559 -0.691,1.373 -0.691,2.441Z" style="fill-rule:nonzero;"/><path d="M159.261,132.036l3.032,-4.313l-2.805,-3.984l1.758,0l1.273,1.945c0.24,0.37 0.432,0.68 0.578,0.93c0.229,-0.344 0.44,-0.649 0.633,-0.914l1.399,-1.961l1.679,0l-2.867,3.906l3.086,4.391l-1.727,0l-1.703,-2.579l-0.453,-0.695l-2.18,3.274l-1.703,0Z" style="fill-rule:nonzero;"/></g></g></svg>